<?xml version="1.0" encoding="UTF-8"?>
<svg width="900" height="600" viewBox="0 0 900 600" fill="none" xmlns="http://www.w3.org/2000/svg">
  <defs>
    <radialGradient id="contactBg" cx="50%" cy="50%" r="80%">
      <stop offset="0%" stop-color="#003366" stop-opacity="0.9"/>
      <stop offset="100%" stop-color="#003366" stop-opacity="0.5"/>
    </radialGradient>
    <linearGradient id="contactWave" x1="0" y1="0" x2="0" y2="1">
      <stop offset="0%" stop-color="#A3C7D2" stop-opacity="0.25"/>
      <stop offset="100%" stop-color="#90D2B5" stop-opacity="0.15"/>
    </linearGradient>
  </defs>
  <rect width="900" height="600" fill="url(#contactBg)"/>
  <path d="M0 520 Q 200 420 450 540 T 900 500 V600 H0Z" fill="url(#contactWave)"/>
  <ellipse cx="700" cy="160" rx="140" ry="80" fill="#A3C7D2" fill-opacity="0.18"/>
  <ellipse cx="220" cy="420" rx="100" ry="50" fill="#90D2B5" fill-opacity="0.13"/>
  <!-- Communication icons -->
  <g opacity="0.7">
    <!-- Chat bubble -->
    <rect x="400" y="300" width="80" height="40" rx="16" fill="#fff" fill-opacity="0.95"/>
    <rect x="420" y="320" width="40" height="10" rx="5" fill="#003366" fill-opacity="0.8"/>
    <!-- Envelope -->
    <rect x="600" y="350" width="48" height="32" rx="8" fill="#A3C7D2"/>
    <polygon points="600,350 624,370 648,350" fill="#90D2B5"/>
    <!-- Network (nodes) -->
    <circle cx="200" cy="150" r="10" fill="#049E8A"/>
    <circle cx="230" cy="170" r="6" fill="#003366"/>
    <line x1="200" y1="150" x2="230" y2="170" stroke="#A3C7D2" stroke-width="2"/>
  </g>
</svg> 