<?xml version="1.0" encoding="UTF-8"?>
<svg width="900" height="600" viewBox="0 0 900 600" fill="none" xmlns="http://www.w3.org/2000/svg">
  <defs>
    <radialGradient id="servicesBg" cx="50%" cy="50%" r="80%">
      <stop offset="0%" stop-color="#003366" stop-opacity="0.9"/>
      <stop offset="100%" stop-color="#003366" stop-opacity="0.5"/>
    </radialGradient>
    <linearGradient id="servicesWave" x1="0" y1="0" x2="0" y2="1">
      <stop offset="0%" stop-color="#90D2B5" stop-opacity="0.25"/>
      <stop offset="100%" stop-color="#A3C7D2" stop-opacity="0.15"/>
    </linearGradient>
  </defs>
  <rect width="900" height="600" fill="url(#servicesBg)"/>
  <path d="M0 500 Q 200 400 450 520 T 900 480 V600 H0Z" fill="url(#servicesWave)"/>
  <ellipse cx="700" cy="180" rx="160" ry="90" fill="#90D2B5" fill-opacity="0.18"/>
  <ellipse cx="220" cy="420" rx="120" ry="60" fill="#A3C7D2" fill-opacity="0.13"/>
  <!-- Device screens -->
  <rect x="350" y="180" width="120" height="80" rx="16" fill="#fff" fill-opacity="0.95"/>
  <rect x="500" y="220" width="60" height="40" rx="10" fill="#A3C7D2" fill-opacity="0.8"/>
  <!-- Service icons -->
  <g opacity="0.7">
    <!-- Web (globe) -->
    <circle cx="400" cy="300" r="18" fill="#003366"/>
    <ellipse cx="400" cy="300" rx="12" ry="6" fill="#90D2B5"/>
    <!-- AI (chip) -->
    <rect x="600" y="350" width="32" height="32" rx="8" fill="#049E8A"/>
    <rect x="610" y="360" width="12" height="12" rx="3" fill="#fff"/>
    <!-- Design (pencil) -->
    <rect x="180" y="120" width="10" height="40" rx="5" fill="#A3C7D2"/>
    <polygon points="185,120 190,110 195,120" fill="#049E8A"/>
    <!-- Marketing (megaphone) -->
    <rect x="250" y="500" width="30" height="12" rx="6" fill="#003366"/>
    <polygon points="280,506 300,512 280,518" fill="#90D2B5"/>
  </g>
</svg> 