<?xml version="1.0" encoding="UTF-8"?>
<svg width="900" height="600" viewBox="0 0 900 600" fill="none" xmlns="http://www.w3.org/2000/svg">
  <defs>
    <radialGradient id="workBg" cx="50%" cy="50%" r="80%">
      <stop offset="0%" stop-color="#003366" stop-opacity="0.9"/>
      <stop offset="100%" stop-color="#003366" stop-opacity="0.5"/>
    </radialGradient>
    <linearGradient id="workWave" x1="0" y1="0" x2="0" y2="1">
      <stop offset="0%" stop-color="#90D2B5" stop-opacity="0.25"/>
      <stop offset="100%" stop-color="#A3C7D2" stop-opacity="0.15"/>
    </linearGradient>
  </defs>
  <rect width="900" height="600" fill="url(#workBg)"/>
  <path d="M0 500 Q 200 400 450 520 T 900 480 V600 H0Z" fill="url(#workWave)"/>
  <ellipse cx="700" cy="180" rx="160" ry="90" fill="#90D2B5" fill-opacity="0.18"/>
  <ellipse cx="220" cy="420" rx="120" ry="60" fill="#A3C7D2" fill-opacity="0.13"/>
  <!-- Project cards -->
  <rect x="350" y="180" width="120" height="80" rx="16" fill="#fff" fill-opacity="0.95"/>
  <rect x="500" y="220" width="80" height="60" rx="12" fill="#A3C7D2" fill-opacity="0.8"/>
  <!-- Trophy/star icons -->
  <g opacity="0.7">
    <!-- Trophy -->
    <rect x="600" y="350" width="32" height="32" rx="8" fill="#049E8A"/>
    <rect x="610" y="370" width="12" height="12" rx="3" fill="#fff"/>
    <!-- Star -->
    <polygon points="200,120 205,135 220,135 208,145 213,160 200,150 187,160 192,145 180,135 195,135" fill="#90D2B5"/>
    <!-- Creative process (pencil/brush) -->
    <rect x="180" y="120" width="10" height="40" rx="5" fill="#A3C7D2"/>
    <polygon points="185,120 190,110 195,120" fill="#049E8A"/>
  </g>
</svg> 